:SAMPLES-PER-SECOND 30
:FULLY-SPECIFIED
:DEGREES
331
root  8.5921 39.165 -1.51691 55.6976 -73.5572 -55.1102
RightUpLeg  -6.42384 1.52478 15.0349
RightLeg  15.3178 -16.8888 -3.32482
RightFoot  -4.02517 -0.380859 5.51538
RightToes  -5.28226e-011 1.30204e-014 -6.03759e-014
Spine  9.61792 1.07419 -12.6811
Spine1  -9.47312 -2.91085 33.5355
HEad  -10.1777 -0.513271 -4.21898
LeftShoulder1  0.300545 -3.75712 4.94293
LeftArm  4.36004 -56.3058 -35.2897
LeftForeArm  177.468 -65.1033 -159.663
LeftHand  0.23801 -4.86917 -2.39963
RightShoulder  0.463804 -0.414494 7.50249
RightArm  -33.0711 35.5615 -7.73776
RightForeArm  159.639 52.9983 165.876
RightHand  -0.0960648 0.348833 -1.98377
LeftUpLeg  -22.6092 -12.5413 13.8549
LeftLeg  46.0587 8.32472 9.5623
LeftFoot  -5.66635 0.552239 -10.8157
LeftToes  -2.42178e-010 -1.66495e-011 -2.88221e-011
332
root  8.67811 38.6562 -1.60231 54.942 -70.7007 -54.5753
RightUpLeg  -8.03809 0.792885 17.7265
RightLeg  18.6009 -17.5221 -4.75913
RightFoot  -7.07525 -0.263455 5.77583
RightToes  -5.28226e-011 1.30204e-014 -6.03759e-014
Spine  10.471 1.08096 -13.1383
Spine1  -9.96253 -3.26351 37.151
HEad  -10.6407 -1.05943 -4.86469
LeftShoulder1  0.166933 -2.37422 6.40099
LeftArm  0.0378434 -59.1328 -32.204
LeftForeArm  177.603 -64.6116 -160.101
LeftHand  0.123546 -5.45094 -1.01657
RightShoulder  0.395206 -0.703336 6.48082
RightArm  -39.0504 39.1651 -11.6601
RightForeArm  159.271 53.7873 165.459
RightHand  0.00858324 0.530366 0.109355
LeftUpLeg  -21.6465 -14.9493 16.4816
LeftLeg  45.2389 8.61709 9.59029
LeftFoot  -12.8597 -0.0872992 -12.9633
LeftToes  -2.42178e-010 -1.66495e-011 -2.88221e-011
333
root  8.82154 38.2459 -1.54321 55.7545 -69.4081 -55.6715
RightUpLeg  -9.53387 -1.76197 19.3391
RightLeg  21.6868 -15.4274 -6.00491
RightFoot  -9.65135 -0.157464 6.26647
RightToes  -5.28226e-011 1.30204e-014 -6.03759e-014
Spine  10.8716 1.35716 -12.6798
Spine1  -9.44864 -3.30967 38.1787
HEad  -11.5658 -1.54365 -4.92713
LeftShoulder1  0.107515 -0.470559 6.51011
LeftArm  -5.39957 -61.2953 -28.4871
LeftForeArm  179.295 -64.7556 -160.15
LeftHand  0.0118269 -6.64192 0.2356
RightShoulder  0.346951 -0.902193 5.61343
RightArm  -44.1679 40.6716 -13.6149
RightForeArm  158.795 54.924 164.844
RightHand  0.135608 0.895365 2.42092
LeftUpLeg  -20.7739 -15.8183 17.6549
LeftLeg  44.7226 8.65584 9.46413
LeftFoot  -18.8321 -0.686313 -12.2823
LeftToes  -2.42178e-010 -1.66495e-011 -2.88221e-011
334
root  9.03242 38.0763 -1.33832 56.3983 -70.5143 -56.6483
RightUpLeg  -11.0375 -3.52223 18.4177
RightLeg  25.007 -12.7079 -6.69559
RightFoot  -10.9539 -0.0993334 7.24378
RightToes  -5.28226e-011 1.30204e-014 -6.03759e-014
Spine  10.9521 1.91039 -11.9762
Spine1  -8.52546 -2.82607 35.8976
HEad  -11.9919 -1.84175 -4.85523
LeftShoulder1  0.12261 0.0981173 5.56952
LeftArm  -9.89569 -61.1243 -26.0346
LeftForeArm  179.911 -64.5755 -160.364
LeftHand  -0.0644755 -6.99886 0.966003
RightShoulder  0.362766 -0.751645 5.41928
RightArm  -46.8579 40.2115 -12.5899
RightForeArm  156.785 55.607 164.318
RightHand  0.257778 1.19891 4.44358
LeftUpLeg  -19.4749 -14.6542 16.2372
LeftLeg  43.2799 8.8486 9.21098
LeftFoot  -20.7869 -0.668794 -9.51822
LeftToes  -2.42178e-010 -1.66495e-011 -2.88221e-011
335
root  9.28211 38.1379 -1.03745 54.0131 -73.5142 -54.9744
RightUpLeg  -12.4809 -3.14459 14.8546
RightLeg  29.1286 -11.4959 -7.08221
RightFoot  -10.4355 -0.140349 8.51492
RightToes  -5.28226e-011 1.30204e-014 -6.03759e-014
Spine  11.3539 2.14991 -11.2448
Spine1  -7.49459 -2.36752 31.0872
HEad  -11.7941 -1.60935 -4.97861
LeftShoulder1  0.212626 -0.984776 4.26694
LeftArm  -14 -58.0471 -24.2863
LeftForeArm  175.853 -63.4356 -160.889
LeftHand  -0.130807 -5.45014 1.73664
RightShoulder  0.455817 -0.168622 5.95489
RightArm  -47.483 38.7746 -9.03064
RightForeArm  153.317 56.0784 163.776
RightHand  0.357794 1.32758 6.06916
LeftUpLeg  -17.3029 -11.8447 12.4695
LeftLeg  40.8505 8.42371 8.12148
LeftFoot  -20.3651 -0.469286 -7.4827
LeftToes  -2.42178e-010 -1.66495e-011 -2.88221e-011
336
root  9.51503 38.3304 -0.669058 46.3054 -76.6206 -48.166
RightUpLeg  -13.9544 -3.05262 10.5046
RightLeg  33.4495 -11.1164 -8.05887
RightFoot  -7.93449 -0.340463 9.57832
RightToes  -5.28226e-011 1.30204e-014 -6.03759e-014
Spine  12.3565 1.52006 -9.78756
Spine1  -6.86701 -2.43291 25.0551
HEad  -11.5004 -0.955166 -5.27751
LeftShoulder1  0.35816 -2.17237 2.4253
LeftArm  -19.2405 -53.3313 -21.776
LeftForeArm  168.493 -62.0683 -161.231
LeftHand  -0.223478 -3.81875 3.05185
RightShoulder  0.562476 0.424348 6.70515
RightArm  -47.7818 37.1627 -4.30194
RightForeArm  149.191 56.8111 163.015
RightHand  0.448179 1.54583 7.36624
LeftUpLeg  -14.681 -8.6853 7.98806
LeftLeg  37.6895 7.11611 6.24923
LeftFoot  -19.4718 -0.354074 -6.6197
LeftToes  -2.42178e-010 -1.66495e-011 -2.88221e-011
337
root  9.69019 38.6065 -0.255488 33.5889 -78.3764 -35.8934
RightUpLeg  -15.6483 -3.1725 6.54371
RightLeg  37.2071 -12.2268 -10.0458
RightFoot  -4.23227 -0.636727 9.81285
RightToes  -5.28226e-011 1.30204e-014 -6.03759e-014
Spine  13.4128 0.0840636 -7.28017
Spine1  -7.02031 -2.95537 18.6918
HEad  -11.2387 -0.369753 -5.62672
LeftShoulder1  0.497825 -2.256 -0.26718
LeftArm  -25.0718 -48.7509 -18.9271
LeftForeArm  161.582 -61.472 -161.01
LeftHand  -0.343055 -3.09037 4.98306
RightShoulder  0.6097 0.615605 7.24733
RightArm  -49.251 35.1918 0.359117
RightForeArm  144.02 57.8638 161.94
RightHand  0.573256 1.94855 8.89886
LeftUpLeg  -12.2605 -6.49242 3.96545
LeftLeg  33.6344 5.68562 4.4285
LeftFoot  -17.9425 -0.222144 -5.68282
LeftToes  -2.42178e-010 -1.66495e-011 -2.88221e-011
338
root  9.80431 38.9225 0.15664 18.9709 -78.7259 -21.0961
RightUpLeg  -17.5859 -2.99073 3.0923
RightLeg  40.2286 -13.1844 -11.9341
RightFoot  -1.07641 -0.822465 9.0601
RightToes  -5.28226e-011 1.30204e-014 -6.03759e-014
Spine  13.9389 -1.61314 -4.40042
Spine1  -7.77865 -3.60501 12.6234
HEad  -10.5634 -0.0674043 -5.89498
LeftShoulder1  0.606112 -1.81705 -3.33539
LeftArm  -30.3444 -44.6299 -16.8531
LeftForeArm  155.051 -61.5566 -160.321
LeftHand  -0.427394 -1.58398 7.2569
RightShoulder  0.617053 0.553131 7.70666
RightArm  -52.0399 32.3994 4.37526
RightForeArm  137.362 59.313 160.401
RightHand  0.769494 2.50081 11.0932
LeftUpLeg  -10.1363 -5.52586 0.380909
LeftLeg  28.7942 4.77966 3.18179
LeftFoot  -15.5042 -0.0790734 -4.75372
LeftToes  -2.42178e-010 -1.66495e-011 -2.88221e-011
339
root  9.87056 39.1678 0.513041 3.19537 -78.5719 -4.88513
RightUpLeg  -19.6273 -1.70421 -0.52549
RightLeg  42.9319 -11.7587 -11.7286
RightFoot  0.498197 -0.872782 8.42543
RightToes  -5.28226e-011 1.30204e-014 -6.03759e-014
Spine  13.9386 -3.02408 -2.43834
Spine1  -8.76043 -4.12734 7.04567
HEad  -9.34835 0.175866 -5.94809
LeftShoulder1  0.741289 -1.85271 -6.08023
LeftArm  -36.0983 -40.1084 -15.1141
LeftForeArm  146.245 -62.3793 -158.813
LeftHand  -0.493943 -1.40003 8.58876
RightShoulder  0.637704 0.575853 8.18081
RightArm  -55.1533 29.1352 7.99609
RightForeArm  129.856 61.4788 158.07
RightHand  1.02176 3.32149 13.3081
LeftUpLeg  -8.08681 -4.56107 -3.43932
LeftLeg  23.9795 3.9233 2.36333
LeftFoot  -13.0935 0.00733196 -4.73476
LeftToes  -2.42178e-010 -1.66495e-011 -2.88221e-011
340
root  9.88428 39.2418 0.811838 -14.3647 -78.3899 13.166
RightUpLeg  -21.6666 1.01742 -4.57781
RightLeg  45.4832 -8.28818 -9.21017
RightFoot  1.26973 -0.970346 8.83744
RightToes  -5.28226e-011 1.30204e-014 -6.03759e-014
Spine  13.6482 -3.94126 -1.40573
Spine1  -9.83053 -4.33178 1.32854
HEad  -7.96482 0.540761 -5.74637
LeftShoulder1  0.906992 -2.25642 -8.24792
LeftArm  -41.7157 -35.1235 -13.3618
LeftForeArm  136.014 -63.8797 -156.458
LeftHand  -0.633574 -1.87301 10.303
RightShoulder  0.664925 0.680302 8.4755
RightArm  -57.8873 26.2789 11.4979
RightForeArm  121.707 64.469 154.476
RightHand  1.31182 4.57342 14.8892
LeftUpLeg  -6.29847 -1.98135 -7.63076
LeftLeg  20.0566 2.11137 1.65518
LeftFoot  -11.5862 0.0578342 -5.19406
LeftToes  -2.42178e-010 -1.66495e-011 -2.88221e-011
